<?xml version="1.0" encoding="UTF-8"?>
<svg width="11px" height="10px" viewBox="0 0 11 10" version="1.1" xmlns="http://www.w3.org/2000/svg" xmlns:xlink="http://www.w3.org/1999/xlink">
    <title>Path</title>
    <g id="Page-1" stroke="none" stroke-width="1" fill="none" fill-rule="evenodd">
        <g id="Free-version" transform="translate(-607.000000, -91.000000)" fill="#FFFFFF" fill-rule="nonzero">
            <g id="Group-26" transform="translate(527.500000, 83.000000)">
                <g id="right-arrow" transform="translate(79.394876, 8.500000)">
                    <path d="M10.8752455,4.04196667 L7.42956476,0.612867856 C7.17147331,0.356029117 6.75402382,0.356985133 6.49711915,0.61510955 C6.24024744,0.873201001 6.24123642,1.29065049 6.49932787,1.5475222 L8.81236001,3.84934586 L0.720169981,3.84934586 C0.356026646,3.84934586 0.0608483533,4.14452415 0.0608483533,4.50866749 C0.0608483533,4.87281082 0.356026646,5.16798912 0.720169981,5.16798912 L8.81232704,5.16798912 L6.49936084,7.46981278 C6.24126939,7.72668449 6.24028041,8.14413398 6.49715211,8.40222543 C6.75405678,8.66038281 7.17153924,8.66127289 7.42959772,8.40446712 L10.8746851,4.97599466 C11.1335018,4.71763948 11.1326776,4.29883838 10.8752455,4.04196667 Z" id="Path"></path>
                </g>
            </g>
        </g>
    </g>
</svg>