<?xml version="1.0" encoding="UTF-8"?>
<svg width="63px" height="64px" viewBox="0 0 63 64" version="1.1" xmlns="http://www.w3.org/2000/svg" xmlns:xlink="http://www.w3.org/1999/xlink">
    <title>christmas-hat</title>
    <defs>
        <linearGradient x1="45.4527007%" y1="-10.6404566%" x2="50%" y2="78.822961%" id="linearGradient-1">
            <stop stop-color="#F757EA" offset="0%"></stop>
            <stop stop-color="#FF4E45" offset="100%"></stop>
        </linearGradient>
        <linearGradient x1="45.4602546%" y1="-27.8772665%" x2="50%" y2="87.1067132%" id="linearGradient-2">
            <stop stop-color="#BD42B3" offset="0%"></stop>
            <stop stop-color="#C23A33" offset="100%"></stop>
        </linearGradient>
    </defs>
    <g id="Page-1" stroke="none" stroke-width="1" fill="none" fill-rule="evenodd">
        <g id="PRO-version" transform="translate(-992.000000, -63.000000)" fill-rule="nonzero">
            <g id="christmas-hat" transform="translate(992.500000, 63.500000)">
                <path d="M5.07835746,34.6517858 C5.07835746,18.40629 18.2478908,5.23675658 34.4933867,5.23675658 L45.659926,5.23675658 C48.5502907,5.23675658 50.8935673,7.5799134 50.8935673,10.4703979 C50.8935673,13.3607626 48.5504105,15.7040392 45.659926,15.7040392 L40.4409024,15.7040392 C38.9969782,15.7040392 37.8263583,16.8746591 37.8263583,18.3185833 L37.8263583,18.4088061 C37.8263583,19.8527304 38.9969782,21.0233503 40.4409024,21.0233503 C49.1819701,21.0233503 56.2681144,28.1094945 56.2681144,36.8505622 L56.2681144,44.1025343 L5.07835746,44.1025343 L5.07835746,34.6517858 Z" id="Path" fill="url(#linearGradient-1)"></path>
                <path d="M50.1939512,7.85537451 L41.0385536,7.85537451 C25.8880726,7.85537451 12.3732485,20.4905575 12.3732485,35.6411583 L12.3732485,44.1024145 L5.077998,44.1024145 L5.077998,34.6519056 C5.077998,18.4067692 18.2484899,5.23627731 34.4936263,5.23627731 L45.6596863,5.23627731 C47.5982185,5.23627731 49.2904052,6.2892361 50.1939512,7.85537451 Z" id="Path" fill="url(#linearGradient-2)"></path>
                <path d="M55.4490399,60.815679 C44.111806,62.2578799 35.609026,62.9789804 29.9406999,62.9789804 C24.5976375,62.9789804 16.5833346,62.2578799 5.89779136,60.815679 C2.65396418,60.815679 0,58.1617148 0,54.9178876 L0,49.9999662 C0,46.7562588 2.65396418,44.1021748 5.89779136,44.1021748 L55.4490399,44.1021748 C58.6927473,44.1021748 61.3468313,46.756139 61.3468313,49.9999662 L61.3468313,54.9177678 C61.3468313,58.1617148 58.6927473,60.815679 55.4490399,60.815679 Z" id="Path" fill="#CACACA"></path>
                <path d="M11.100051,61.3757972 C10.0025315,61.2458536 8.26832509,61.0590277 5.89743191,60.8153195 C2.34109214,60.4497572 0.000239635592,58.161595 0.000239635592,54.9181272 L0.000239635592,49.9997265 C0.000239635592,46.7562588 2.65396418,44.1025343 5.89743191,44.1025343 L11.100051,44.1021748 C10.2832531,44.1021748 10.0309335,44.5863275 10.0309335,45.4031254 L10.0309335,59.0940216 C10.0309335,59.9106997 10.2832531,61.3757972 11.100051,61.3757972 Z" id="Path" fill="#B0B0B0"></path>
                <circle id="Oval" fill="#CCCCCC" cx="51.6995816" cy="9.54228926" r="9.49028833"></circle>
                <path d="M59.7816514,14.5190412 C58.110313,17.2276423 55.1164257,19.0324578 51.7000609,19.0324578 C46.4580323,19.0324578 42.2091735,14.7834791 42.2091735,9.54276853 C42.2091735,5.89383738 44.2687216,2.72489631 47.2906462,1.13790961 C46.3966856,2.58399058 45.8825474,4.28971672 45.8825474,6.1141823 C45.8825474,11.3550127 50.1315261,15.6038715 55.3735547,15.6038715 C56.9641359,15.6038715 58.4641349,15.2120674 59.7816514,14.5190412 Z" id="Path" fill="#AFAFAF"></path>
            </g>
        </g>
    </g>
</svg>