<?xml version="1.0" encoding="UTF-8"?>
<svg width="18px" height="15px" viewBox="0 0 18 15" version="1.1" xmlns="http://www.w3.org/2000/svg" xmlns:xlink="http://www.w3.org/1999/xlink">
    <title>Shape</title>
    <g id="Page-1" stroke="none" stroke-width="1" fill="none" fill-rule="evenodd">
        <g id="PRO-version" transform="translate(-223.000000, -535.000000)" fill="#555555" fill-rule="nonzero">
            <g id="Group-9" transform="translate(223.000000, 156.000000)">
                <g id="Group-8" transform="translate(0.000000, 51.000000)">
                    <g id="Group-14" transform="translate(0.000000, 287.210356)">
                        <g id="Group-13" transform="translate(0.000000, 39.289644)">
                            <g id="speaker-filled-audio-tool" transform="translate(0.000000, 2.000000)">
                                <path d="M8.81943158,12.6039789 C8.81943158,12.9145263 8.64,13.1966526 8.3592,13.3283368 C8.25063158,13.3796842 8.13429474,13.4045053 8.01871579,13.4045053 C7.83568421,13.4045053 7.65435789,13.3416 7.50789474,13.2201474 L3.13143158,9.59362105 L0.800526316,9.59362105 C0.358484211,9.594 0,9.23532632 0,8.79328421 L0,5.60387368 C0,5.16164211 0.358484211,4.80315789 0.800526316,4.80315789 L3.13162105,4.80315789 L7.50808421,1.17663158 C7.7472,0.978442105 8.07877895,0.936189474 8.35938947,1.06882105 C8.64,1.20050526 8.81962105,1.48282105 8.81962105,1.79317895 L8.81943158,12.6039789 L8.81943158,12.6039789 Z M11.8959158,11.3530737 C11.8764,11.3544 11.8576421,11.3551579 11.8383158,11.3551579 C11.6268632,11.3551579 11.4229895,11.2716 11.2723579,11.1207789 L11.1653053,11.0133474 C10.8845053,10.7331158 10.8515368,10.2891789 11.088,9.97048421 C11.6874947,9.16218947 12.0039158,8.20402105 12.0039158,7.19886316 C12.0039158,6.11772632 11.6446737,5.10366316 10.9648421,4.26618947 C10.7060211,3.94787368 10.7298947,3.48555789 11.0199789,3.19566316 L11.1268421,3.08861053 C11.2867579,2.92869474 11.5010526,2.84153684 11.7329684,2.85536842 C11.9588211,2.86673684 12.1697053,2.97303158 12.3129474,3.14810526 C13.2559579,4.302 13.7540842,5.70296842 13.7540842,7.19905263 C13.7540842,8.59244211 13.3135579,9.91875789 12.4798737,11.034 C12.3406105,11.2198737 12.1276421,11.3365895 11.8959158,11.3530737 Z M15.2056421,13.8270316 C15.0608842,13.9981263 14.8515158,14.1008211 14.6273684,14.1102947 C14.6163789,14.1106737 14.6052,14.1110526 14.5938316,14.1110526 C14.3818105,14.1110526 14.1783158,14.0273053 14.0276842,13.8766737 L13.9225263,13.7715158 C13.6286526,13.4778316 13.6087579,13.0081263 13.8759158,12.6901895 C15.1669895,11.1546947 15.8782737,9.20463158 15.8782737,7.19886316 C15.8782737,5.11256842 15.1167789,3.10414737 13.7345684,1.54364211 C13.4543368,1.22684211 13.4685474,0.747284211 13.7667789,0.447915789 L13.8717474,0.342757895 C14.0274947,0.186252632 14.2298526,0.100042105 14.4619579,0.107431579 C14.6823158,0.113684211 14.8907368,0.211073684 15.0372,0.375915789 C16.7079789,2.25701053 17.6282528,4.68037895 17.6282528,7.19886316 C17.6286316,9.62204211 16.7682316,11.9760632 15.2056421,13.8270316 Z" id="Shape"></path>
                            </g>
                        </g>
                    </g>
                </g>
            </g>
        </g>
    </g>
</svg>